<svg xmlns="http://www.w3.org/2000/svg" width="20" height="20" fill="none" viewBox="0 0 20 20"><path fill="#FF3C3C" d="M17.234 2.459c.342.096.76.308 1.043.672a2 2 0 0 0-.5-.545c.428.236.728.67.897 1.11-.167-.565-.154-.487-.024-.26.123.242.176.591.18.603a2.3 2.3 0 0 0-.04-.527c.24.425.175 1.507.282.87-.014.114.012.388.015.397.055-.03.029-.66.06-.56.047.119-.005.29-.014.47-.086.853.139.668-.125 1.422l.035-.039c-.283.782-.638 1.447-1.016 2.095-.089.282-.458.954-.672 1.265-.04.061-.268.35-.289.37-.037.037.117-.199.03-.104-.017.021-.375.525-.326.507.042-.054.15-.24.178-.267.19-.168-.938 1.355-.984 1.436l.1-.084-.226.278.065-.13c-.086.106-.192.256-.275.352-.013.015-.002-.042-.033-.004-.03.038.003.051-.037.11-.044.065-.287.342-.365.442-.287.373-.57.758-.88 1.115.29-.397-.042-.027-.12.085-.017.025.034.062-.287.425-.208.235-.093-.04-.39.383.3-.263.052.028-.151.27-.037.045-.32.363-.446.512-.043.052-.085.149-.142.215-.039.045-.081.069-.138.135-.27.316-.54.623-.819.924.096-.225-.146.113-.17.133-.082.06.212-.278.085-.157-.172.196-.314.357-.495.56.14-.14-.117.225-.21.288.042.013-.23.27-.494.513l-.842.881-.771-.893c-.166-.22-.307-.414-.362-.464-.025-.024.1.178-.246-.26-.038-.047-.008-.043-.03-.066-.014-.014-.142-.069-.188-.18-.02-.044.2.157-.22-.325.11.236-.572-.648-.694-.827l.058.113c-.111-.176-.148-.187-.176-.224-.11-.146-.258-.367-.362-.497-.126-.157-.157-.133-.293-.332l.085.151-.294-.39c.268.263-.045-.062-.067-.089-.031-.037.028.004-.024-.059-.005-.006-.014.016-.093-.083-.161-.203-.115-.185-.181-.271-.006-.008 0 .03-.116-.117-.374-.475.012-.005.028.011.02.02-.043-.183.241.233-.095-.139-.081-.174-.092-.19l-.203-.26c-.097-.11-.037.006-.057-.014s-.207-.318-.31-.346c-.053-.174.104.047.281.267.035.025-.14-.227-.152-.244-.242-.325-.149-.116-.227-.167-.04-.028-.113-.183-.057-.031-.223-.296-.07-.131-.08-.153-.017-.032-.101-.126-.11-.142-.013-.02.047.037-.003-.042-.008-.012-.118-.118-.014.046-.15-.212-.155-.182-.17-.28-.173-.095-.036-.136-.073-.196-.097-.158-.12-.078-.128-.082-.057-.043-.338-.481-.418-.582.067.014.235.338.29.398.18.201-.198-.324-.037-.2l-.181-.172c-.054-.146.08.02-.16-.306-.065-.035.166.233.104.19-.036-.025-.17-.215-.18-.216-.011.002.117.168.087.151-.069-.04-.476-.698-.132-.221-.093-.135-.088-.243-.184-.35-.06-.069.153.413-.264-.247.016-.029.179.256.186.262.01.007.032-.08.03-.09-.013-.036-.479-.685-.538-.847.003.08-.325-.512-.37-.569-.013-.015.004.06-.009.043-.078-.102-.223-.432-.303-.576-.088-.16-.093-.13-.098-.139-.038-.07.005-.022-.019-.064a37 37 0 0 1-.29-.55c-.005-.005.012.08-.042-.018-.009-.018.02-.013-.141-.32-.188-.366.094.273-.004.13-.08-.257-.11-.231-.137-.297-.009-.022-.056-.204-.138-.396.062.134.128.271.19.395-.05-.123-.173-.388-.21-.499-.018-.055.024-.021-.022-.136-.008-.024-.11-.098.04.196-.012.033-.058-.119-.09-.183-.005-.011-.055-.032-.067-.134.004-.02.177.17-.1-.413-.008-.019 0 .054-.01.035-.006-.014-.046-.172-.054-.194-.007-.019 0 .07-.009.047-.048-.116-.029-.287.031-.041a5 5 0 0 1-.04-.25c-.024.096-.042-.121-.062-.238-.106-.798-.07-.261-.102-.397-.03-.23.038-.054.037-.428 0-.017-.017.081-.023.085.004-.01-.024-.052.03-.287l.023-.085a2 2 0 0 0-.034.21c.036-.054.116-.528.146-.56.088-.2.124-.233.158-.287.04-.048.083-.152.33-.375.046-.04.157-.108.266-.172.216-.118.073-.069-.142.065-.21.126-.425.383-.441.396-.01.006.2-.284.495-.454.291-.175.556-.225.581-.231.16-.035-.488.167-.354.151.016-.004.162-.073.38-.125a3.4 3.4 0 0 1 1.282-.027c.28.056.382.147.4.086.061.079.138.057.171.067.4.135.397.14.72.279.07.031.12.077.146.087.015.005-.002-.027.07.003.106.037.635.383.663.422.032.034-.224-.14-.187-.094.19.122.366.24.542.376.073.056.029.037.06.061.018.012.267.198.259.187-.012-.04-.808-.612-.587-.477.044.025.17.152.168.107.71.53 1.314 1.137 1.866 1.774-.337-.347-.702-.757-1.09-1.103-.051-.047-.23-.208-.22-.175.335.29.728.663 1.002.975.009.01-.035-.014-.003.024.061.07.28.278.308.32-.008-.003-.122-.105-.098-.06.066.122.139.1.214.188.061.069.41.546.518.652.115.11-.262-.351-.222-.328.27.301.5.638.724.944.003.005-.02-.05.032.018.09.12.092.158.133.222l.169.257c.103-.207.203-.396.287-.527a8 8 0 0 0-.279.542l.027.04a17 17 0 0 1 1.178-2.047c.116-.164.076-.06.26-.334l-.17.196c.096-.14.562-.737.64-.83.01-.013.004-.046.126-.192.109-.129.141-.137.204-.202.053-.055.108-.12.124-.136.012-.012.025-.01.055-.038.095-.09 0-.035.116-.104l-.064.07c.114-.11.28-.25.12-.081-.028.03-.01-.002-.032.02-.79.858-.156.177.128-.12.082-.066.52-.467.541-.473.023-.013-.047.059.063-.017.016-.024.662-.49.44-.31-.05.034-.358.258-.428.318.184-.115.574-.438.629-.465.198-.12-.36.261.082-.015.346-.2.011-.028.14-.113.071-.052.49-.233.47-.25.142-.066.066-.016.083-.022.017-.009.304-.13.403-.153.011-.002-.02.023-.008.02.024-.008.307-.092.323-.095.007-.003-.065.003-.037-.008.032-.014.314-.071.332-.076.02-.012-.33.066-.275.04.162-.037.426-.09.535-.112l-.242.037c.019-.025.293-.061.274-.048.04-.01.006-.01.042-.02.014-.004.117-.013.138-.017-.007-.001-.106-.001-.086-.007a3 3 0 0 1 .395-.018c.075.005-.19.012-.214.024.008 0 .223.014.227.017.013.014-.237.006-.208.021q.092 0 .186.006c-.24.008-.677.052-.783.094.343-.07.713-.074.713-.036 0 .015-.15.03-.143.034.024.011.227-.008.237-.006q.01 0 .01.003c-.005.006-.296.019-.31.026-.023.008.108.03.108.036-.006 0-.209.02-.14.027.07.004.245 0 .257 0 .034.004-.279.024-.287.032.006.001.163.003.168.007-.006.003-.124.018-.17.033-.036.011.07.008.053.01-.013 0-.305.034-.319.04-.02.005.049.005.04.009-.014.005-.107.016-.094.018.014-.003.374-.013.37 0-.008.013-.38.02-.025.043l.088-.01c.053.007-.216.04.116.019-.615.064-.076.026-.165.058-.035.011-.268.044-.27.047.025.01.099-.01.125-.007.01.001-.192.044-.144.046.025 0 .246-.03.255-.028.086 0-.018.018 0 .023.013.002.146-.007.15-.006-.002.001-.172.029-.21.04-.027.007.08.003.06.007-.119.02-.372.033-.126.037.015 0 .104-.011.11-.011.057.005-.111.024-.14.038-.048.022.19-.018-.008.02.152-.01.232-.02.409-.03-.485.039-.644.116-.116.055-.168.012-.147.036-.197.042-.031.002-.275.02-.157.053.016.002.157-.026.115-.007-.348.052-.007.008-.006.012-.004.009-.839.194-.968.282-.158.071-.282.166-.315.183-.109.059-.025-.002-.052.007-.03.008-.316.208-.332.22-.055.031-.018-.009-.016-.014-.08.034-.46.33-.562.418.01.003.22-.164.099-.046-.136.137-.174.115-.18.116-.684.596-1.26 1.334-1.759 2.12.027 0 .347-.515.36-.522.054-.056-.507.797-.57.906q.078-.117.161-.236c-.062.156-.277.446-.379.662-.032.069.048-.052.048-.052-.031.083-.104.199-.07.101-.084.19-.087.158-.162.3-.002.005.038-.046-.014.066-.026.055-.165.337-.175.385-.003.018.112-.107.082-.143.172-.3.033-.109.094-.228.01-.018.005.036.155-.27.004.077-.2.407-.224.471-.052.128.22-.367.243-.475.007.057.022-.033.084-.144.069-.122.048-.065.084-.129.1-.176.039-.115.142-.25-.138.108.139-.255.223-.355q-.165.274-.32.557l.026-.026-.083.145.005-.028c-.124.269-.174.317-.186.34-.143.267-.3.59-.426.872-.018.041.01.023-.137.324-.048.1-.024 0-.068.112-.016.159-.048.143-.065.183-.05.124-.063.196-.069.211-.022.061-.056.15-.077.214l-.434 1.275-.704-1.169a9 9 0 0 0-.172-.266s.035.08-.023-.016c-.021-.035-.17-.372-.373-.62l.133.21c-.05-.087-.466-.626-.382-.482.055.09.234.266.218.312-.115-.2-.905-1.171-.968-1.244-.006-.01.056.043.046.028-.01-.013-.196-.225-.219-.258-.012-.017.077.072.074.061-.005-.013-.231-.275-.262-.282.066.06.222.246.126.16-.012-.011-.06-.082-.076-.096-.14-.125.236.286.29.354-.244-.255-.59-.67-.887-.939-.106-.123.186.154.064.017-.244-.271-.1-.075-.096-.065-.077-.056-.258-.33-.3-.286-.095-.097-.057-.074-.207-.194l.048.058c-.18-.115-.474-.454-.448-.442.084.04.25.208.265.22.023.02.128.023.337.281.129.058-.373-.36-.13-.187-.15-.138-.787-.651-.899-.688-.012-.004.018.062-.136-.06-.075-.057.118.061.087.03-.048-.046-.458-.314-.912-.48a2.9 2.9 0 0 0-1.072-.194c-.018 0-.013-.013-.03-.013h-.001c-.072 0-.26.04-.331.057.169-.016-.152.066-.157.092-.05.031-.056.01-.076.024-.074.022-.057.359-.067.568.048-.02.042.362.111.555.044.136.161.335.11.134a7 7 0 0 0 .326.73c.018.036-.022-.006.01.055.003.006.022.007.05.06.247.452.104.248.14.339q.03.074.049.11c-.15-.266-.304-.567-.344-.652-.005.084.304.597.38.745.002.005-.026-.003-.023.003.027.056.244.42.222.332-.006-.025-.105-.195-.214-.388.033.05.032.001.038.009.07.105.216.405.27.5.012.022.023.014.025.017.05.09-.008.075.085.145.052.188-.187-.298-.196-.247-.015.04.633 1.056.678 1.035q-.002.008.017.056c.03.07.22.35.261.394.007.007.04-.019.047-.009.02.03.227.387.337.5l-.13-.216c.29.413.258.342.17.197l-.013-.022c-.068-.112-.155-.254-.154-.257.008-.007.506.682.379.57-.02-.02-.234-.35-.144-.174.016.031.173.236.178.248.034.084-.313-.355-.297-.283.101.095.192.247.288.368.044.055.072.057.077.064.082.102.02.056.046.091.016.02.205.2.123.198.547.655.177.162-.132-.257.116.119.299.386.39.499.033.04.032.003.088.07.114.14.62.84.757 1.021-.092-.104-.087-.058-.02.026.068.083.039-.006.054.007.018.017.314.416.371.48-.244-.287-.212-.206-.013.047l-.105-.097c.126.143.345.475.421.55.012.012-.01-.047-.003-.04.066.066.258.336.272.342.013.006-.06-.113-.021-.078.008.007.07.129.158.225.033.035.03 0 .04.008.07.071.006.047.131.19.092.104.184.162.295.311-.361-.499-.046-.092.134.1.028.031.036-.018.182.183-.395-.363.07.14.158.243.005.006-.012.024.033.078.004.004.012-.013.055.035.399.446.134.168.195.265.024.04.243.255.29.31.012.012-.005.018.039.068.081.091.175.17.228.229.006.006-.012.027.091.13.032.033.075.067.036.012-.108-.163-.406-.435-.537-.626-.118-.173.311.317.344.354.007.008-.09-.082-.003.023.057.067.162.146.258.24.085-.056.18-.119.22-.17.065-.082.01-.087.014-.096.008-.013.097-.111.122-.151.03-.047-.001-.038.05-.11.113-.16.147-.129.162-.142.185-.166.066-.128.097-.174.037-.05.507-.576.586-.701l-.093.157c.091-.065.126-.183.168-.15-.052-.072.133-.21.176-.265.016-.022.004-.03.025-.057.084-.106.27-.32.31-.382.164-.258-.358.31-.404.36.082-.098.495-.648.265-.426-.036.035-.06.128-.076.15-.108.151-.044.016-.056.025-.02.017-.068.13-.093.154-.008.008.012-.066-.103.075.039-.095.363-.461.401-.522.011-.019-.127.052.188-.244h-.022c.143-.186.291-.382.435-.572-.005.029-.063.152.034.016.056-.078-.012-.042-.008-.05.048-.07.99-1.302 1.156-1.546.059-.083.203-.33.214-.347.074-.107.348-.469.396-.546.03-.048-.022-.02.008-.06.027-.038.021.017.03.006.076-.09.535-.836.665-.996-.073.102-.38.661-.357.66a.8.8 0 0 0 .115-.148c.048-.03.09-.222.155-.296.008-.008.017.05.118-.092.036-.05.094-.196.208-.31.118-.204.77-1.198.764-1.292-.004.001-.095.135-.056.028.053-.144.057.014.148-.136.017-.026.228-.44.232-.463.026-.149-.178.206-.183.201a3 3 0 0 1 .154-.34c.01-.01-.064.271.068-.043l-.072.093c.06-.149.102-.142.121-.175.06-.104.052-.237.203-.38.04-.036.027.049.032.045.051-.044.012-.145.098-.201.006-.004-.039.194.095-.13l-.042.061c.008-.046.13-.39.144-.428.05-.121.053 0 .088-.126-.075.066.033-.324.068-.285-.042-.063.066-.363.07-.467.01-.083-.021-.198-.021-.21.001-.016.042-.017.046-.048.002-.015-.046-.073-.01-.08.007-.001.064-.039.082-.046.031-.014.002.06.04.053.041-.019-.01-.077-.01-.077 0-.035.043-.06.056-.067.025-.025-.019-.057-.023-.062-.002-.017.051-.016.066-.03.022-.02-.018-.104 0-.103.037.004.064.076.067.08.056.02.055-.075.046-.12 0-.013.037-.004.033-.01-.067-.104-.07.056-.127.01-.054-.038.035-.033.042-.035.001-.004-.08-.05-.093-.07.009-.014.253.042.268.02a.8.8 0 0 0-.234-.116c.015-.047.124.046.132.048.028.005-.021-.052-.013-.064.006-.009.105.01.038-.045-.023-.018-.103-.026-.201-.095.407.126.156-.011.145-.037-.007-.022.22.038-.039-.07.022-.09.018-.028.1-.008.093.028-.076-.113.205.089.02-.05-.25-.191-.27-.194-.01-.008.06-.002.04-.018-.238-.175-.068-.073-.133-.15 0-.01-.296-.098-.067-.053.395.089.506.275.638.208-.224-.26-.648-.275-.742-.288-.154-.027.009-.024-.007-.035-.008-.004-.137-.024-.135-.025-.039-.055.105-.043.288.015.172.051.371.162.466.213a1.4 1.4 0 0 0-.137-.122q.114.051.214.116c-.317-.218-.002-.028.121-.029.028-.001-.205-.134.072.01-.178-.15-.107-.121-.304-.202.023-.038.46.187.59.364-.22-.29-.325-.296-.377-.318-.062-.015-.104-.046-.363-.183-.108.002.14.091.12.093-.093-.017-.23-.114-.463-.079-.035.007.098.077-.114.033a1 1 0 0 1-.14-.061c.02-.027.14.002.153-.007.002-.012-.136-.027-.136-.03.002-.035.113.003.1-.01-.022-.028-.55-.183.146-.052-.586-.052-.095.005.15.062.06.012.08-.004.163.017.098.023.241.102.293.128.058.034-.243-.218.22.097-.094-.105-.281-.212-.462-.275-.168-.06-.35-.098-.486-.137-.23-.07-.145-.08.01-.07.187.013.432.082.477.097.024.007-.047-.049-.03-.045.014-.018.556.264.599.299.062.014-.178-.126-.185-.152.004-.055.623.44.305.144-.216-.215-.718-.337-.756-.415m-6.932 14.009h.027c-.003-.008.005-.008.012-.009h-.043zm-1.153-.008h.033l.01-.01H9.16zm1.13-.049.012.034.063.001c-.002.004-.02-.011-.027-.02q-.007-.008-.01-.015zm-1.09.01-.017.017h.03l.03-.036h-.026zm-.064.017h.018l.018-.037h-.013c-.013.017-.03.039-.023.037m2.959-.354c-.01-.012-.186.17-.182.204.03-.035.184-.193.182-.204M9.118 15.08c-.029-.003.124.163.126.168.004.01-.015.07-.004.086.017.023.203.242.339.404l.017-.018c.014-.002.008.01-.007.03l.027.034a.1.1 0 0 0 .016-.035c-.023-.032-.038-.042-.05-.046-.023.02-.024.014-.015-.006q-.005 0-.009-.002c-.031-.037-.084-.13-.148-.199l.178.168.007-.008c-.127-.16-.457-.569-.477-.576m.488.602.026.023-.016-.02v-.001l-.006-.007zm.482-.681c.008-.007.148-.215.122-.108l-.025.039c-.038.051-.111.13-.14.156-.005.005-.012-.043-.066.025-.042.054.051 0-.039.098-.09.096.005-.055-.004-.048-.013.012-.13.175-.141.155-.009-.013.136-.168.172-.215.043-.058-.033-.009.05-.098.052-.057.059.006.07-.004m.47-.248c-.033.027-.203.255-.132.192.06-.053.182-.234.131-.192m.014-.099c-.017.018-.28.312-.207.267.028-.018.48-.552.207-.267m-1.549.153c-.053-.097.182.181.084.1zm-.26-.164c.023.059.129.18.114.13a.6.6 0 0 0-.115-.13m1.936.107c0 .02.042-.04.08-.074.041-.039.149-.152.201-.254zm.063-.537c-.02.066-.155.2-.22.272.023-.059.157-.207.22-.272m-2.203.152c-.02-.042-.122-.124-.087-.054a.17.17 0 0 0 .087.054m2.54-.119c.144-.09.043-.074-.06.025-.01.048.037-.01.06-.025m-2.855-.163c.009.013.167.212.176.201-.035-.056-.256-.325-.176-.2m2.754.044c-.023.018-.113.14-.103.147.026.004.14-.175.103-.147m-.126-.148c-.03.05-.005.073-.05.124-.149.161-.054.02.05-.124m.339.186c.134-.1.1-.177.022-.082-.03.037-.041.096-.022.082m-3.081-.3c.03.068.178.206.151.161-.022-.034-.181-.227-.151-.16m2.95-.156c.062-.037-.072.114-.073.117 0 .008.14-.032-.091.163-.034.029.046-.104.036-.097l-.058.055a3 3 0 0 1 .187-.238m.31.111c.016-.05-.147.136-.154.149-.044.078.12-.051.153-.149m-3.359-.05c-.112-.093.081.13.147.206.015-.005-.139-.198-.147-.205m3.12-.026c.016.005-.13.209-.17.197.035-.04.157-.198.17-.197m.57-.245c-.024.014-.173.24-.182.248-.014.013.015-.073-.07.041.014 0-.016.084-.004.075.038-.031.322-.4.257-.364m-.222.183c.005-.01-.078.024-.097.075-.014.038.073-.035.097-.075m-3.984-.644c.074.05.38.45.317.41-.05-.033-.276-.331-.317-.41m4.31-.228c-.022-.007-.193.243-.247.295-.004.067.132-.16.169-.192l-.01.072c.002.02.023.002.104-.153-.12.136-.012-.016-.016-.022m.044-.047c.092-.122-.022-.072-.062.017-.002.006.055-.01.062-.017m-4.733-.244c.034.048.145.172.126.173-.06-.068-.125-.136-.126-.173m-.126.061c-.033-.05-.028-.077-.05-.096-.007-.005-.023.004-.046-.017zm8.584-.691c-.023.078-.259.324-.232.27.008-.015.235-.302.232-.27m-9.078-.034c-.06-.095-.2-.253-.153-.165.01.019.14.165.153.165m6.146-.168c-.065.056-.137.188-.094.15.011-.01.108-.145.094-.15m-8.54-.292c.086.118.235.2.122.058-.013-.015-.121-.077-.121-.058m2.118.119c-.033-.054-.165-.217-.12-.136.02.035.101.133.12.136m7.36-1.13c-.037.068-.306.412-.297.426.01.013.296-.386.297-.426m-10.274-.152c.007.016-.033.034-.027.051.002.009.165.231.181.263l.01.022c-.011-.042.123.165.106.167a2 2 0 0 1-.1-.149l-.002-.007c.003.037-.308-.449-.26-.33-.102-.135.042 0-.036-.1-.026-.033-.092-.04-.188-.245-.028-.06.02-.004.018-.015 0-.004-.089-.197.006-.051.142.217-.019.042.054.16.01.016.169.218.168.204 0-.002-.047-.066-.052-.078-.018-.046.006-.035.004-.04-.011-.02-.252-.358-.265-.425-.004-.017.368.546.383.573m.128.107c.043.12.155.287.16.224-.127-.188-.012.044-.16-.224m1.86-.166c-.058-.117.198.247.099.14zM3.092 9.68c-.08-.098.055.162.093.197.018.016-.058-.154-.093-.197m6.146.02c-.046-.08-.054-.058-.05-.052.03.06.101.144.05.052m-7.03-1.274c.007.01.084.188.129.266.135.236.124.165.132.178.009.015.08.174.128.257.124.208.186.286.338.574-.11-.15-.087-.046-.184-.228l.038.037c-.158-.242-.318-.563-.478-.857-.042-.077-.017.026-.066-.08-.04-.086-.066-.19-.037-.147m2.491.857c.021.01.187.227.179.25-.012.03-.153-.206-.179-.25m4.231.122c-.351-.494-.352-.585-.055-.12.004.006.082.15.055.12m5.438-.064q-.012.008-.024 0 .03-.017.024 0M7.86 7.872c.03.036.014-.01.047.03.11.135.194.26.293.387.009.011-.05-.083.024.014.01.013.072.119.16.233.237.236.337.457.586.793a7 7 0 0 0-.18-.294 16 16 0 0 0-.795-1.075c-.059-.073-.039-.032-.065-.062-.02-.025.019-.01-.053-.085-.035-.037.045.094.021.07-.016-.015-.08-.106-.11-.13a.7.7 0 0 0 .072.12m-3.602.854c-.171-.31.767 1.124.181.322l.1.101c-.063-.107-.15-.234-.165-.231l-.005-.02c-.004-.01-.084-.12-.111-.172m4.894.514-.004.013.01-.002.006-.012zm1.103-.103.006.011h.012l-.008-.013zm-1.968-.71c-.013.002.114.159.136.17a3 3 0 0 0-.136-.17m2.486-.043c.008-.038-.075.135-.093.188.002.02.093-.185.093-.188m-.032.148c0 .014.094-.176.089-.193-.02.044-.088.178-.089.193M8.149 8.26c.093.152-.01-.014-.024.003.072.093.256.339.146.16-.022-.036-.088-.118-.122-.163m6.845-.017c.084-.104.09.022.007.1-.01.009-.121.041-.007-.1m-12.816-.11c.005.014.09.172.097.162-.026-.062-.133-.256-.097-.162m9.265-1.126a1.6 1.6 0 0 0-.144.292l-.044.06c-.05.041-.815 1.58-.28.555.016-.03-.017.007.051-.121.005-.009.016-.009.03-.035.034-.064.212-.381.243-.448q.003 0 .011-.011c.055-.071.163-.335.133-.292m-1.821 1.16.025.037.019-.037-.033-.024zM8.008 8.11c.031.039.104.092.044.012-.018-.01-.115-.097-.044-.012m1.603.038.01-.018c-.069-.09-.072-.136-.077-.146-.022-.033-.053-.061-.074-.092-.035-.052-.047-.085-.092-.15-.032-.045-.015.009-.045-.035-.011-.016-.104-.214-.148-.204.009.011.205.309.426.645m-2.038-.58c.04.034.505.625.42.489-.011-.024-.423-.538-.42-.49m7.691.28c.011.025-.07.14-.105.187-.014-.013.079-.136.105-.186m-6.037-.235c.012.019.158.224.168.221-.038-.062-.233-.33-.168-.22m-1.544.121c.026.044.115.124.079.06-.04-.05-.084-.07-.079-.06m-.265-.477c-.012-.017-.21-.212-.144-.118.046.064.07.061.082.075.016.016.289.36.062.043m4.084-.216a3 3 0 0 1-.174.287c.056-.1.116-.2.174-.287m4.217.013-.06.106c-.073.076.094-.221.06-.106m-8.792-.167c-.022-.007.124.138.152.148a1 1 0 0 0-.152-.148m4.63-.057c-.007.01-.108.168-.085.151.035-.024.12-.194.085-.15M1.487 6.56c-.013.008.066.215.066.186-.002-.01-.057-.193-.066-.186m10.293-.02c.011-.013.088-.028-.027.111-.02.026.036-.088-.086.093.088-.137.046-.124.113-.204m-5.306-.13c.035.036.36.346.258.224-.016-.022-.368-.352-.258-.225m4.475-.5c.036-.027-.146.226-.152.236-.06.072.093-.172.152-.237m5.347 0c.017.005-.056.179-.064.19-.041.053.017-.135.064-.19m-8.552-.223c.017-.001.145.15.194.202-.016 0-.143-.153-.194-.202m-6.586-.146c.002-.14.089.543.023.229a3 3 0 0 1-.023-.229m4.333.108c-.029-.052.12.046.208.125.02.018.083.099-.01.036.021-.024-.11-.137-.198-.16m10.943-.17a7 7 0 0 1-.087.286c-.009-.068.068-.202.087-.285m.199.036c-.04.016-.066.163-.107.245.049-.026.078-.166.107-.245m-4.187.196c.095-.157.147-.154.138-.142-.109.159-.056.05-.058.048-.01.01-.088.128-.08.094m4.13-.191c-.003.003-.066.181-.053.19.033-.08.096-.226.053-.19m.138-.08c-.031.014-.08.173-.102.242.042-.018.07-.168.102-.242m-11.297.084a1 1 0 0 1 .209.134c-.022-.002-.16-.102-.21-.134m-4.31-.376c.015-.083.008.042.012.19.002.13.017.286.022.305-.026.038-.05-.435-.034-.495m1.6.208c.012.027.052.236.049.27a1.6 1.6 0 0 1-.048-.27m2.451.051c-.327-.168-.205-.213.193.073l-.045-.015c.463.326.03.021-.09-.044-.046-.026-.016.009-.057-.014zm11.237-.052c-.004.026-.047.124-.062.17-.016-.067.078-.26.062-.17m.04.122v.003-.006zM2.68 5.174c.008.01.017.158.01.18-.012-.045-.01-.128-.01-.18m14.051-.056c-.034.037-.067.252-.048.22.01-.013.07-.241.048-.22m-3.987.121c.02-.015-.024.048-.052.077-.049.052-.01-.026.052-.077m-7.995-.076c.02.007.148.087.198.112-.078-.02-.323-.159-.198-.112m7.049-.216c-.012.011-.21.239-.206.25.029-.035.318-.368.206-.25m.088.035c-.046.054-.177.197-.176.212.043-.055.175-.196.176-.212m-.004-.17c-.003.003.052-.037-.042.067-.008.009-.037.014-.148.154a.4.4 0 0 0-.047.077c.137-.128.479-.578.237-.298m-7.466.207c.095.038-.02.022-.066-.006-.017-.01.042-.004.066.006m8.783-.13c.095-.076-.206.22-.117.115zm-9.282-.026c-.302-.128.294.035.47.11-.177-.039-.393-.107-.105.013-.432-.13-.248-.092-.264-.102-.02-.008-.089-.015-.101-.02m2.846-.16c.064.03.206.162.298.245-.051-.026-.216-.178-.298-.245m-2.562.17c.041.008.127.054.093.052-.045-.003-.103-.053-.093-.052m9.522-.433-.011.007c-.033.033-.431.368-.452.39-.127.093.404-.377.43-.382l.019-.01a.6.6 0 0 1 .141-.101c-.032.022-.115.088-.127.096m-10.135.33c-.1-.036.318-.009.405.036-.014.005-.392-.04-.405-.036m3.1.007c.02-.009-.25-.21-.156-.115.024.023.15.118.155.115m6.675-.16a.7.7 0 0 1-.15.153c.144-.14 0-.023.15-.154m-.506-.684c-.042.017-.67.614-.741.712.078-.088.704-.674.74-.694.007-.008.005-.021.001-.018m4.163.427c-.012-.024-.041.072-.017.088.016.008.027-.073.017-.088m-4.388-.046c-.064.04-.1.123-.013.042.026-.024.02-.046.013-.042m-.068-.244c-.051.062-.216.21-.304.302-.023-.002.236-.24.304-.302m6.378-.472c-.08-.273-.506-1.22.009-.26h-.001c.095.26.009.11.014.122.129.532.117.373.147.455.039.165-.024.167.015.416-.067-.432-.023-.03-.049-.023-.085.072.003-.601-.14-.857-.012-.032.042.23.005.147m.198.327c.03-.077.07.336.058.37 0 .023-.087-.271-.058-.37m-13.104.22c.012.006.155.106.16.11.111.098-.305-.19-.16-.11m8.248-.109a3 3 0 0 1-.236.175c-.151.088.22-.173.236-.175m-1.019-.201c-.058.04-.227.169-.25.2.06-.052.232-.175.25-.2m.67-.567q-.207.115-.403.246c.147-.055-.126.109-.23.151l-.094.097c-.085.01-.066.08-.2.141-.119.158.418-.323.522-.328-.645.439.452-.252-.037-.002.392-.224.121-.087.175-.132.058-.048.286-.167.267-.173m-8.764.425c-.013-.034.273.127.37.18.012.032-.265-.137-.37-.18m8.653-.438c-.1.08-.197.12-.339.213-.037.025-.023.025-.027.028-.065.044-.022.003-.063.03-.034.015-.528.407-.466.342.035-.06.761-.557.895-.613m-8.85.472c.066.042.179.06.12.02-.064-.031-.127-.025-.12-.02m9.785-.02c-.01-.017.3-.13.378-.153-.08.036-.263.103-.378.152m2.606-.281c.042.056.083.12.111.182.076-.002-.009-.062-.03-.091-.018-.028-.015-.068-.08-.091m-12.771.031c.022-.005.234.074.305.102-.052-.005-.201-.067-.305-.102m-.102.092c-.162-.072-.163-.029-.04.007.042.012.045-.004.04-.007m9.476-.24c-.016.005-.303.18-.283.177.038-.024.457-.261.283-.176m-10.699.044c-.127 0-.31.012-.345.027a4 4 0 0 1 .345-.016c.049 0 .079-.003.069-.011zm15.239-.337c-.108-.18.184.207.22.342-.01-.003-.203-.332-.22-.342m-15.24.203c.582.004.802.09.779.086-.027.005-.299-.06-.78-.068q-.158-.001-.334.013c-.003-.015-.007-.011.096-.02a3 3 0 0 1 .238-.011m12.916.066c.036.007-.116.017-.17.017-.123-.003.157-.022.17-.017m-1.91-.188c-.03.009-.281.132-.297.154.122-.052.362-.18.297-.154m1-.264a5 5 0 0 0-.749.203c-.057.021-.108.05-.156.07-.076.032-.014-.007-.019-.005l-.074.034c-.065.034-.09.062.068-.008a5 5 0 0 0-.214.113c.275-.119.244-.135.324-.169.113-.044.115-.014.096.003.083-.055.484-.193.724-.24m1.618.223c.12.006.32.093.424.136.01.005-.006-.103.102.022.07.068-.429-.12-.526-.158m-2.05-.054c-.36.134-.23.068-.298.084-.141.04-.073.072-.055.067.071-.022.304-.131.354-.151m4.177-.172c.013.012.143.25.143.259.091.224-.307-.487-.143-.259m-3.528-.103c-.231.02-.482.116-.51.125-.036.008.015-.02.007-.019-.021 0-.39.122-.407.134-.012.005.061.001-.01.036.136-.082.83-.25.868-.246.028-.006-.19.004.149-.034zm-.62.095c-.175.043-.534.205-.394.121.072-.042.128-.045.138-.048.095-.034.296-.098.256-.073m.02.051c.095-.02-.164.06-.227.082-.14.041.208-.08.226-.082m.23-.151c.165-.033-.563.168-.603.196.043-.033.578-.2.603-.196m-.502.128c.028-.006-.018.022-.096.052-.03.005.03-.04.096-.052m.76-.058c-.123.021-.31.061-.371.092.118-.034.306-.068.37-.092m-.251-.085c-.025-.001-.558.17-.461.124.063-.043.599-.17.46-.124m2.017.036c-.102-.048.137.012.204.054-.005.013-.185-.048-.204-.054m-.487-.128c.13.041-.208.027-.248-.009a1.2 1.2 0 0 1 .248.01m-.016-.078c.105.029-.131.013-.206.001-.003-.017.19-.006.206 0m-.308-.285c.354.068.05.042.818.126-.332-.027-.027.03-.093.035-.052.003-.241-.045-.136.008-.134-.074-.69-.1-.728-.099h.001c-.016-.004.026-.085.138-.07m.277.006c.008-.012.131-.003.262.021.155.027.31.074.356.088-.03.003-.193-.034-.356-.058-.139-.022-.268-.037-.262-.051"/></svg>